<svg xmlns="http://www.w3.org/2000/svg" width="39.31" height="42" viewBox="0 0 39.31 42">
  <g id="Group_4212" data-name="Group 4212" transform="translate(-17.743 -5)">
    <path id="Path_136" data-name="Path 136" d="M43.682,10.67c-10.994,1.748-22.1,8.739-24.518,19.812-1.09,5-.7,8.572-1.42,13.1a72,72,0,0,1,5.548-8.319,16,16,0,0,1-.237-8.066s.481,4.073,1.733,6.22q1.527-1.826,3.029-3.36c-.2-2.374-.425-8.573,2.332-11.437,0,0-1.663,6.133-.684,9.821,8.168-7.674,15-9.24,15-9.24A63.553,63.553,0,0,0,33.98,26.6c3.218-.234,9.85-2.451,9.85-2.451a37.42,37.42,0,0,1-12.155,4.574,54.345,54.345,0,0,0-5.328,6c5.6.35,16.818-3.916,16.818-3.916-5.325,3.781-14.941,5.67-18.524,6.269a87.479,87.479,0,0,0-4.9,9.474c2.591-.951,6.609-2.349,10.8-3.513,7.1-1.976,16.516-4.7,21.158-15.329,4.609-10.546,2.446-18.643,4.96-22.533C56.281,5.753,53.693,9.079,43.682,10.67Z" transform="translate(0 0.454)" fill="#004a2b"/>
    <path id="Path_137" data-name="Path 137" d="M92.163,5.625c.259-.4.384-.625.384-.625C92.408,5.2,92.295,5.42,92.163,5.625Z" transform="translate(-35.494)" fill="#004a2b"/>
  </g>
</svg>
