<svg xmlns="http://www.w3.org/2000/svg" width="15.46" height="16.427" viewBox="0 0 15.46 16.427">
  <path id="person" d="M8,8.848a4.031,4.031,0,0,0,3.85-4.184A3.951,3.951,0,0,0,8,.595,3.972,3.972,0,0,0,4.15,4.682,4.027,4.027,0,0,0,8,8.848ZM8,7.31A2.459,2.459,0,0,1,5.759,4.682,2.394,2.394,0,0,1,8,2.133a2.377,2.377,0,0,1,2.241,2.531A2.47,2.47,0,0,1,8,7.31ZM2.516,17.021h10.96c1.521,0,2.25-.483,2.25-1.52,0-2.417-3.015-5.634-7.726-5.634S.266,13.084.266,15.5C.266,16.538,1,17.021,2.516,17.021Zm-.272-1.538c-.211,0-.29-.07-.29-.229,0-1.345,2.171-3.85,6.047-3.85s6.038,2.5,6.038,3.85c0,.158-.079.229-.29.229Z" transform="translate(-0.266 -0.595)" fill="#004a2b"/>
</svg>
