<svg xmlns="http://www.w3.org/2000/svg" width="18.185" height="18.176" viewBox="0 0 18.185 18.176">
  <path id="plus_circle_fill" d="M9.991,18.742a9.147,9.147,0,0,0,9.1-9.088A9.155,9.155,0,0,0,9.982.566,9.138,9.138,0,0,0,.9,9.654,9.145,9.145,0,0,0,9.991,18.742ZM5.737,9.663a.845.845,0,0,1,.879-.879h2.5v-2.5a.826.826,0,0,1,.853-.87.838.838,0,0,1,.879.87v2.5h2.514a.87.87,0,1,1,0,1.74H10.852v2.5a.842.842,0,0,1-.879.87.831.831,0,0,1-.853-.87v-2.5h-2.5A.84.84,0,0,1,5.737,9.663Z" transform="translate(-0.903 -0.566)" fill="#004a2b"/>
</svg>
