<svg xmlns="http://www.w3.org/2000/svg" width="51.358" height="14.4" viewBox="0 0 51.358 14.4">
  <g id="Group_3" data-name="Group 3" transform="translate(-281.46 -224.9)">
    <path id="Path_2" data-name="Path 2" d="M18.18-13.6H20.2L13.38.6H13.2L10.34-5.38,7.46.6H7.28L.46-13.6h2.1L7.5-3.18,9.44-7.24,6.38-13.6H8.3l2.08,4.36,2.06-4.36h1.84L11.26-7.34l1.98,4.16Z" transform="translate(312.618 238.6)"/>
    <g id="Group_1" data-name="Group 1" transform="translate(-1 -0.138)">
      <path id="tag.fill" d="M8.361,12.017,11.9,8.478a.968.968,0,0,0,.31-.862V6.248a.957.957,0,0,0-.386-.83l-.826-.826a.965.965,0,0,0-.83-.386H8.794a.947.947,0,0,0-.855.314L4.4,8.056a1.045,1.045,0,0,0,0,1.66l2.3,2.3A1.049,1.049,0,0,0,8.361,12.017Zm1.169-4.8a.52.52,0,1,1,.52-.52A.511.511,0,0,1,9.53,7.215Z" transform="translate(296.692 221.352)" fill="#1c1c1e"/>
      <path id="wave.3.right" d="M13.135,8.9a4.458,4.458,0,0,0-1.224-3.1.3.3,0,0,0-.453-.011.322.322,0,0,0,.039.453A3.807,3.807,0,0,1,12.53,8.9a3.807,3.807,0,0,1-1.033,2.66.318.318,0,0,0-.039.449A.3.3,0,0,0,11.911,12,4.464,4.464,0,0,0,13.135,8.9Zm-1.288,0A3.282,3.282,0,0,0,11,6.664a.307.307,0,0,0-.47-.014.324.324,0,0,0,.05.453,2.751,2.751,0,0,1,0,3.587.324.324,0,0,0-.05.453.307.307,0,0,0,.47-.018A3.266,3.266,0,0,0,11.847,8.9Zm-1.291,0A2.077,2.077,0,0,0,10.107,7.6a.307.307,0,0,0-.474-.028c-.117.131-.078.29.042.456a1.5,1.5,0,0,1,0,1.733c-.12.163-.159.322-.042.453a.3.3,0,0,0,.474-.028A2.059,2.059,0,0,0,10.556,8.9Z" transform="matrix(0.208, 0.978, -0.978, 0.208, 311.314, 223.554)" fill="#1c1c1e"/>
    </g>
    <path id="Path_1" data-name="Path 1" d="M12.56-13.6H14.5V.4h-.2L4.4-9.66V0H2.46V-14h.2l9.9,10.1Z" transform="translate(279 238.9)"/>
  </g>
</svg>
