<svg id="Group_203" data-name="Group 203" xmlns="http://www.w3.org/2000/svg" width="377.481" height="452.806" viewBox="0 0 377.481 452.806">
  <path id="Path_133" data-name="Path 133" d="M235.585,3.089c23.336,126.534-29.145,363.685-196.4,371.569C111.4,295.6,198.474,191.649,196.475,82.376,191.349,188.271,62.2,350.789,12.651,379.15-24.091,221.731,102.815,105.97,235.585,3.089Z" transform="translate(136.643 67.853)" fill="#004a2b" fill-rule="evenodd"/>
  <path id="Path_134" data-name="Path 134" d="M0,14.245C9.981,69.752,68.156,158.918,137.981,136.3,96.14,115.038,44.362,85.852,28.295,40.723c18.467,42.644,96.556,89.347,121.261,93.325C140.3,63.8,70.358,35.927,0,14.244Z" transform="translate(0 312.903)" fill="#004a2b" fill-rule="evenodd"/>
  <path id="Path_135" data-name="Path 135" d="M15.454,0c59.3,42.141,125.836,126.544,151.772,214.025-17.556,24.271-31.829,49.6-41.6,76.224-9.646-77.51-31.29-154.765-83-206.12,43.324,49.176,67.708,146.892,76.288,227.3a227.649,227.649,0,0,0-4.818,96.726c-11.513-38.237-43.271-62.152-82.039-79.7C-11.288,237.325-1.206,117.382,15.454,0Z" transform="translate(26.044)" fill="#004a2b" fill-rule="evenodd"/>
</svg>
