<svg xmlns="http://www.w3.org/2000/svg" width="51.65" height="42" viewBox="0 0 51.65 42">
  <g id="Group_207" data-name="Group 207" transform="translate(-1287.318 -1451.945)">
    <path id="Path_2850" data-name="Path 2850" d="M31.177,45.071h-.029l-.029.028ZM50.8,18.132a17.007,17.007,0,0,0,1.922-2.926,12.318,12.318,0,0,0,.918-1.807,26.645,26.645,0,0,1,2.926,14.2,21.047,21.047,0,0,1-4.791,12.279,18.627,18.627,0,0,1-8.434,6q-2.783.975-11.016-1.607a.68.68,0,0,0-.143.23.618.618,0,0,1-.115.143,23.169,23.169,0,0,0-3.27,9.7,1.114,1.114,0,0,1-.4.745,1.179,1.179,0,0,1-1.607,0,1.114,1.114,0,0,1-.4-.745,18.833,18.833,0,0,0-2.381-7.2.631.631,0,0,1-.086-.2.337.337,0,0,0-.057-.086c-.038-.019-.057-.038-.057-.057q-6.4,1.635-8.463.947A14.455,14.455,0,0,1,8.8,43.061a16.689,16.689,0,0,1-3.758-9.5A20.9,20.9,0,0,1,7.366,22.492a13.511,13.511,0,0,0,.66,1.434,17.037,17.037,0,0,0,1.52,2.237q2.3,2.783,8.061,4.419a31.129,31.129,0,0,1,4.074,1.405,8.356,8.356,0,0,1,3.27,2.267,7.726,7.726,0,0,1,1.836,5.708,30.334,30.334,0,0,1-.861,3.1,11.015,11.015,0,0,0-6.139-3.816,21.2,21.2,0,0,1,5.566,5.508q.258.374.488.746l.086.086a1.852,1.852,0,0,1,.172.287V45.9a23.88,23.88,0,0,1,1.434,2.9,22.99,22.99,0,0,1,2.553-5.566.439.439,0,0,1,.086-.114,4.3,4.3,0,0,1,.488-.717A26.439,26.439,0,0,1,38.12,35q-5.852,2.009-8.033,5.652a41.9,41.9,0,0,1-1.463-4.762,10.084,10.084,0,0,1,2.324-7.373,10.62,10.62,0,0,1,4.217-2.927,41.452,41.452,0,0,1,5.279-1.806Q47.874,21.69,50.8,18.132Z" transform="translate(1282.327 1438.547)" fill="#004a2b" fill-rule="evenodd"/>
  </g>
</svg>
